<mxfile host="app.diagrams.net" agent="Mozilla/5.0 (Windows NT 10.0; Win64; x64) AppleWebKit/537.36 (KHTML, like Gecko) Chrome/135.0.0.0 Safari/537.36" version="26.2.6">
  <diagram id="C5RBs43oDa-KdzZeNtuy" name="Page-1">
    <mxGraphModel dx="2132" dy="710" grid="1" gridSize="10" guides="1" tooltips="1" connect="1" arrows="1" fold="1" page="1" pageScale="1" pageWidth="827" pageHeight="1169" background="#FFFFFF" math="0" shadow="0">
      <root>
        <mxCell id="WIyWlLk6GJQsqaUBKTNV-0" />
        <mxCell id="WIyWlLk6GJQsqaUBKTNV-1" parent="WIyWlLk6GJQsqaUBKTNV-0" />
        <mxCell id="WIyWlLk6GJQsqaUBKTNV-2" value="" style="rounded=0;html=1;jettySize=auto;orthogonalLoop=1;fontSize=11;endArrow=block;endFill=0;endSize=8;strokeWidth=1;shadow=0;labelBackgroundColor=none;edgeStyle=orthogonalEdgeStyle;" parent="WIyWlLk6GJQsqaUBKTNV-1" target="WIyWlLk6GJQsqaUBKTNV-6" edge="1">
          <mxGeometry relative="1" as="geometry">
            <mxPoint x="250" y="140" as="sourcePoint" />
          </mxGeometry>
        </mxCell>
        <mxCell id="WIyWlLk6GJQsqaUBKTNV-4" value="&lt;font style=&quot;font-size: 18px;&quot;&gt;No&lt;/font&gt;" style="rounded=0;html=1;jettySize=auto;orthogonalLoop=1;fontSize=11;endArrow=block;endFill=0;endSize=8;strokeWidth=1;shadow=0;labelBackgroundColor=none;edgeStyle=orthogonalEdgeStyle;" parent="WIyWlLk6GJQsqaUBKTNV-1" edge="1">
          <mxGeometry x="-0.5" y="20" relative="1" as="geometry">
            <mxPoint as="offset" />
            <mxPoint x="250" y="271" as="sourcePoint" />
            <mxPoint x="250" y="311" as="targetPoint" />
          </mxGeometry>
        </mxCell>
        <mxCell id="WIyWlLk6GJQsqaUBKTNV-5" value="&lt;font style=&quot;font-size: 16px;&quot;&gt;Yes&lt;/font&gt;" style="edgeStyle=orthogonalEdgeStyle;rounded=0;html=1;jettySize=auto;orthogonalLoop=1;fontSize=11;endArrow=block;endFill=0;endSize=8;strokeWidth=1;shadow=0;labelBackgroundColor=none;" parent="WIyWlLk6GJQsqaUBKTNV-1" source="WIyWlLk6GJQsqaUBKTNV-6" target="WIyWlLk6GJQsqaUBKTNV-7" edge="1">
          <mxGeometry x="-0.1837" y="10" relative="1" as="geometry">
            <mxPoint as="offset" />
          </mxGeometry>
        </mxCell>
        <mxCell id="WIyWlLk6GJQsqaUBKTNV-6" value="if&lt;div&gt;ip.isEmpty()&lt;/div&gt;" style="rhombus;whiteSpace=wrap;html=1;shadow=0;fontFamily=Helvetica;fontSize=12;align=center;strokeWidth=1;spacing=6;spacingTop=-4;" parent="WIyWlLk6GJQsqaUBKTNV-1" vertex="1">
          <mxGeometry x="200" y="190" width="100" height="80" as="geometry" />
        </mxCell>
        <mxCell id="EBlUURWpQlwmX8y5HMvf-5" style="edgeStyle=orthogonalEdgeStyle;rounded=0;orthogonalLoop=1;jettySize=auto;html=1;exitX=1;exitY=0.5;exitDx=0;exitDy=0;" edge="1" parent="WIyWlLk6GJQsqaUBKTNV-1" source="WIyWlLk6GJQsqaUBKTNV-7" target="EBlUURWpQlwmX8y5HMvf-4">
          <mxGeometry relative="1" as="geometry" />
        </mxCell>
        <mxCell id="WIyWlLk6GJQsqaUBKTNV-7" value="return false" style="rounded=1;whiteSpace=wrap;html=1;fontSize=12;glass=0;strokeWidth=1;shadow=0;" parent="WIyWlLk6GJQsqaUBKTNV-1" vertex="1">
          <mxGeometry x="349" y="210" width="120" height="40" as="geometry" />
        </mxCell>
        <mxCell id="WIyWlLk6GJQsqaUBKTNV-8" value="No" style="rounded=0;html=1;jettySize=auto;orthogonalLoop=1;fontSize=11;endArrow=block;endFill=0;endSize=8;strokeWidth=1;shadow=0;labelBackgroundColor=none;edgeStyle=orthogonalEdgeStyle;" parent="WIyWlLk6GJQsqaUBKTNV-1" source="WIyWlLk6GJQsqaUBKTNV-10" edge="1">
          <mxGeometry x="0.3333" y="20" relative="1" as="geometry">
            <mxPoint as="offset" />
            <mxPoint x="250" y="450" as="targetPoint" />
          </mxGeometry>
        </mxCell>
        <mxCell id="WIyWlLk6GJQsqaUBKTNV-9" value="&lt;font style=&quot;font-size: 14px;&quot;&gt;Yes&lt;/font&gt;" style="edgeStyle=orthogonalEdgeStyle;rounded=0;html=1;jettySize=auto;orthogonalLoop=1;fontSize=11;endArrow=block;endFill=0;endSize=8;strokeWidth=1;shadow=0;labelBackgroundColor=none;" parent="WIyWlLk6GJQsqaUBKTNV-1" source="WIyWlLk6GJQsqaUBKTNV-10" target="WIyWlLk6GJQsqaUBKTNV-12" edge="1">
          <mxGeometry y="10" relative="1" as="geometry">
            <mxPoint as="offset" />
          </mxGeometry>
        </mxCell>
        <mxCell id="WIyWlLk6GJQsqaUBKTNV-10" value="if ip.startsWith(&#39;.&#39;) or&lt;div&gt;ip.endsWith(&#39;.)&lt;/div&gt;" style="rhombus;whiteSpace=wrap;html=1;shadow=0;fontFamily=Helvetica;fontSize=12;align=center;strokeWidth=1;spacing=6;spacingTop=-4;" parent="WIyWlLk6GJQsqaUBKTNV-1" vertex="1">
          <mxGeometry x="180" y="310" width="140" height="100" as="geometry" />
        </mxCell>
        <mxCell id="EBlUURWpQlwmX8y5HMvf-22" style="edgeStyle=orthogonalEdgeStyle;rounded=0;orthogonalLoop=1;jettySize=auto;html=1;exitX=1;exitY=0.5;exitDx=0;exitDy=0;" edge="1" parent="WIyWlLk6GJQsqaUBKTNV-1" source="WIyWlLk6GJQsqaUBKTNV-12">
          <mxGeometry relative="1" as="geometry">
            <mxPoint x="500" y="359.5" as="targetPoint" />
          </mxGeometry>
        </mxCell>
        <mxCell id="WIyWlLk6GJQsqaUBKTNV-12" value="return false" style="rounded=1;whiteSpace=wrap;html=1;fontSize=12;glass=0;strokeWidth=1;shadow=0;" parent="WIyWlLk6GJQsqaUBKTNV-1" vertex="1">
          <mxGeometry x="360" y="340" width="120" height="40" as="geometry" />
        </mxCell>
        <mxCell id="EBlUURWpQlwmX8y5HMvf-3" value="" style="edgeStyle=orthogonalEdgeStyle;rounded=0;orthogonalLoop=1;jettySize=auto;html=1;" edge="1" parent="WIyWlLk6GJQsqaUBKTNV-1" source="EBlUURWpQlwmX8y5HMvf-0" target="EBlUURWpQlwmX8y5HMvf-2">
          <mxGeometry relative="1" as="geometry" />
        </mxCell>
        <mxCell id="EBlUURWpQlwmX8y5HMvf-0" value="Start" style="ellipse;whiteSpace=wrap;html=1;" vertex="1" parent="WIyWlLk6GJQsqaUBKTNV-1">
          <mxGeometry x="190" y="60" width="120" height="40" as="geometry" />
        </mxCell>
        <mxCell id="EBlUURWpQlwmX8y5HMvf-2" value="input ip" style="shape=parallelogram;perimeter=parallelogramPerimeter;whiteSpace=wrap;html=1;fixedSize=1;" vertex="1" parent="WIyWlLk6GJQsqaUBKTNV-1">
          <mxGeometry x="190" y="120" width="120" height="30" as="geometry" />
        </mxCell>
        <mxCell id="EBlUURWpQlwmX8y5HMvf-4" value="end" style="ellipse;whiteSpace=wrap;html=1;" vertex="1" parent="WIyWlLk6GJQsqaUBKTNV-1">
          <mxGeometry x="440" y="1403" width="120" height="40" as="geometry" />
        </mxCell>
        <mxCell id="EBlUURWpQlwmX8y5HMvf-10" style="edgeStyle=orthogonalEdgeStyle;rounded=0;orthogonalLoop=1;jettySize=auto;html=1;exitX=1;exitY=0.5;exitDx=0;exitDy=0;" edge="1" parent="WIyWlLk6GJQsqaUBKTNV-1" source="EBlUURWpQlwmX8y5HMvf-8">
          <mxGeometry relative="1" as="geometry">
            <mxPoint x="360" y="499.5" as="targetPoint" />
          </mxGeometry>
        </mxCell>
        <mxCell id="EBlUURWpQlwmX8y5HMvf-14" style="edgeStyle=orthogonalEdgeStyle;rounded=0;orthogonalLoop=1;jettySize=auto;html=1;exitX=0.5;exitY=1;exitDx=0;exitDy=0;" edge="1" parent="WIyWlLk6GJQsqaUBKTNV-1" source="EBlUURWpQlwmX8y5HMvf-8">
          <mxGeometry relative="1" as="geometry">
            <mxPoint x="249.75" y="590" as="targetPoint" />
          </mxGeometry>
        </mxCell>
        <mxCell id="EBlUURWpQlwmX8y5HMvf-8" value="ip.contains(&quot;..&quot;)" style="rhombus;whiteSpace=wrap;html=1;shadow=0;fontFamily=Helvetica;fontSize=12;align=center;strokeWidth=1;spacing=6;spacingTop=-4;" vertex="1" parent="WIyWlLk6GJQsqaUBKTNV-1">
          <mxGeometry x="180" y="450" width="140" height="100" as="geometry" />
        </mxCell>
        <mxCell id="EBlUURWpQlwmX8y5HMvf-20" style="edgeStyle=orthogonalEdgeStyle;rounded=0;orthogonalLoop=1;jettySize=auto;html=1;" edge="1" parent="WIyWlLk6GJQsqaUBKTNV-1" source="EBlUURWpQlwmX8y5HMvf-11">
          <mxGeometry relative="1" as="geometry">
            <mxPoint x="500" y="500" as="targetPoint" />
          </mxGeometry>
        </mxCell>
        <mxCell id="EBlUURWpQlwmX8y5HMvf-11" value="return false" style="rounded=1;whiteSpace=wrap;html=1;fontSize=12;glass=0;strokeWidth=1;shadow=0;" vertex="1" parent="WIyWlLk6GJQsqaUBKTNV-1">
          <mxGeometry x="360" y="480" width="110" height="40" as="geometry" />
        </mxCell>
        <mxCell id="EBlUURWpQlwmX8y5HMvf-13" value="Yes" style="text;html=1;align=center;verticalAlign=middle;resizable=0;points=[];autosize=1;strokeColor=none;fillColor=none;" vertex="1" parent="WIyWlLk6GJQsqaUBKTNV-1">
          <mxGeometry x="310" y="468" width="40" height="30" as="geometry" />
        </mxCell>
        <mxCell id="EBlUURWpQlwmX8y5HMvf-18" value="" style="edgeStyle=orthogonalEdgeStyle;rounded=0;orthogonalLoop=1;jettySize=auto;html=1;" edge="1" parent="WIyWlLk6GJQsqaUBKTNV-1" source="EBlUURWpQlwmX8y5HMvf-16" target="EBlUURWpQlwmX8y5HMvf-17">
          <mxGeometry relative="1" as="geometry" />
        </mxCell>
        <mxCell id="EBlUURWpQlwmX8y5HMvf-16" value="&lt;font style=&quot;font-size: 15px;&quot;&gt;segments = ip.split(&quot;.&quot;)&lt;/font&gt;" style="whiteSpace=wrap;html=1;" vertex="1" parent="WIyWlLk6GJQsqaUBKTNV-1">
          <mxGeometry x="165" y="590" width="170" height="60" as="geometry" />
        </mxCell>
        <mxCell id="EBlUURWpQlwmX8y5HMvf-26" style="edgeStyle=orthogonalEdgeStyle;rounded=0;orthogonalLoop=1;jettySize=auto;html=1;exitX=1;exitY=0.5;exitDx=0;exitDy=0;entryX=0;entryY=0.5;entryDx=0;entryDy=0;" edge="1" parent="WIyWlLk6GJQsqaUBKTNV-1" source="EBlUURWpQlwmX8y5HMvf-17" target="EBlUURWpQlwmX8y5HMvf-25">
          <mxGeometry relative="1" as="geometry" />
        </mxCell>
        <mxCell id="EBlUURWpQlwmX8y5HMvf-33" value="" style="edgeStyle=orthogonalEdgeStyle;rounded=0;orthogonalLoop=1;jettySize=auto;html=1;" edge="1" parent="WIyWlLk6GJQsqaUBKTNV-1" source="EBlUURWpQlwmX8y5HMvf-17" target="EBlUURWpQlwmX8y5HMvf-32">
          <mxGeometry relative="1" as="geometry" />
        </mxCell>
        <mxCell id="EBlUURWpQlwmX8y5HMvf-17" value="if segment.size != 4" style="rhombus;whiteSpace=wrap;html=1;" vertex="1" parent="WIyWlLk6GJQsqaUBKTNV-1">
          <mxGeometry x="165" y="680" width="170" height="80" as="geometry" />
        </mxCell>
        <mxCell id="EBlUURWpQlwmX8y5HMvf-29" style="edgeStyle=orthogonalEdgeStyle;rounded=0;orthogonalLoop=1;jettySize=auto;html=1;" edge="1" parent="WIyWlLk6GJQsqaUBKTNV-1" source="EBlUURWpQlwmX8y5HMvf-25">
          <mxGeometry relative="1" as="geometry">
            <mxPoint x="500" y="720" as="targetPoint" />
          </mxGeometry>
        </mxCell>
        <mxCell id="EBlUURWpQlwmX8y5HMvf-25" value="return false" style="rounded=1;whiteSpace=wrap;html=1;fontSize=12;glass=0;strokeWidth=1;shadow=0;" vertex="1" parent="WIyWlLk6GJQsqaUBKTNV-1">
          <mxGeometry x="365" y="700" width="110" height="40" as="geometry" />
        </mxCell>
        <mxCell id="EBlUURWpQlwmX8y5HMvf-27" value="Yes" style="text;html=1;align=center;verticalAlign=middle;resizable=0;points=[];autosize=1;strokeColor=none;fillColor=none;" vertex="1" parent="WIyWlLk6GJQsqaUBKTNV-1">
          <mxGeometry x="330" y="688" width="40" height="30" as="geometry" />
        </mxCell>
        <mxCell id="EBlUURWpQlwmX8y5HMvf-38" value="" style="edgeStyle=orthogonalEdgeStyle;rounded=0;orthogonalLoop=1;jettySize=auto;html=1;" edge="1" parent="WIyWlLk6GJQsqaUBKTNV-1" source="EBlUURWpQlwmX8y5HMvf-32" target="EBlUURWpQlwmX8y5HMvf-37">
          <mxGeometry relative="1" as="geometry" />
        </mxCell>
        <mxCell id="EBlUURWpQlwmX8y5HMvf-47" style="edgeStyle=orthogonalEdgeStyle;rounded=0;orthogonalLoop=1;jettySize=auto;html=1;" edge="1" parent="WIyWlLk6GJQsqaUBKTNV-1" source="EBlUURWpQlwmX8y5HMvf-32" target="EBlUURWpQlwmX8y5HMvf-39">
          <mxGeometry relative="1" as="geometry">
            <mxPoint x="160" y="770" as="targetPoint" />
            <Array as="points">
              <mxPoint x="145" y="830" />
              <mxPoint x="145" y="770" />
            </Array>
          </mxGeometry>
        </mxCell>
        <mxCell id="EBlUURWpQlwmX8y5HMvf-32" value="segment in segments" style="rhombus;whiteSpace=wrap;html=1;" vertex="1" parent="WIyWlLk6GJQsqaUBKTNV-1">
          <mxGeometry x="165" y="790" width="170" height="80" as="geometry" />
        </mxCell>
        <mxCell id="EBlUURWpQlwmX8y5HMvf-49" value="" style="edgeStyle=orthogonalEdgeStyle;rounded=0;orthogonalLoop=1;jettySize=auto;html=1;" edge="1" parent="WIyWlLk6GJQsqaUBKTNV-1" source="EBlUURWpQlwmX8y5HMvf-37" target="EBlUURWpQlwmX8y5HMvf-48">
          <mxGeometry relative="1" as="geometry" />
        </mxCell>
        <mxCell id="EBlUURWpQlwmX8y5HMvf-37" value="segmentValue = segment.toIntOrNull" style="whiteSpace=wrap;html=1;" vertex="1" parent="WIyWlLk6GJQsqaUBKTNV-1">
          <mxGeometry x="185" y="908" width="130" height="50" as="geometry" />
        </mxCell>
        <mxCell id="EBlUURWpQlwmX8y5HMvf-39" value="No" style="text;html=1;align=center;verticalAlign=middle;resizable=0;points=[];autosize=1;strokeColor=none;fillColor=none;" vertex="1" parent="WIyWlLk6GJQsqaUBKTNV-1">
          <mxGeometry x="240" y="758" width="40" height="30" as="geometry" />
        </mxCell>
        <mxCell id="EBlUURWpQlwmX8y5HMvf-42" value="Yes" style="text;html=1;align=center;verticalAlign=middle;resizable=0;points=[];autosize=1;strokeColor=none;fillColor=none;" vertex="1" parent="WIyWlLk6GJQsqaUBKTNV-1">
          <mxGeometry x="240" y="878" width="40" height="30" as="geometry" />
        </mxCell>
        <mxCell id="EBlUURWpQlwmX8y5HMvf-51" style="edgeStyle=orthogonalEdgeStyle;rounded=0;orthogonalLoop=1;jettySize=auto;html=1;entryX=0;entryY=0.5;entryDx=0;entryDy=0;" edge="1" parent="WIyWlLk6GJQsqaUBKTNV-1" source="EBlUURWpQlwmX8y5HMvf-48" target="EBlUURWpQlwmX8y5HMvf-50">
          <mxGeometry relative="1" as="geometry" />
        </mxCell>
        <mxCell id="EBlUURWpQlwmX8y5HMvf-55" value="" style="edgeStyle=orthogonalEdgeStyle;rounded=0;orthogonalLoop=1;jettySize=auto;html=1;" edge="1" parent="WIyWlLk6GJQsqaUBKTNV-1" source="EBlUURWpQlwmX8y5HMvf-48" target="EBlUURWpQlwmX8y5HMvf-54">
          <mxGeometry relative="1" as="geometry" />
        </mxCell>
        <mxCell id="EBlUURWpQlwmX8y5HMvf-48" value="if&amp;nbsp;&lt;div&gt;segmentValue == null&lt;/div&gt;" style="rhombus;whiteSpace=wrap;html=1;" vertex="1" parent="WIyWlLk6GJQsqaUBKTNV-1">
          <mxGeometry x="175" y="980" width="150" height="90" as="geometry" />
        </mxCell>
        <mxCell id="EBlUURWpQlwmX8y5HMvf-52" style="edgeStyle=orthogonalEdgeStyle;rounded=0;orthogonalLoop=1;jettySize=auto;html=1;exitX=1;exitY=0.5;exitDx=0;exitDy=0;" edge="1" parent="WIyWlLk6GJQsqaUBKTNV-1" source="EBlUURWpQlwmX8y5HMvf-50">
          <mxGeometry relative="1" as="geometry">
            <mxPoint x="500" y="1025" as="targetPoint" />
          </mxGeometry>
        </mxCell>
        <mxCell id="EBlUURWpQlwmX8y5HMvf-50" value="return false" style="rounded=1;whiteSpace=wrap;html=1;fontSize=12;glass=0;strokeWidth=1;shadow=0;" vertex="1" parent="WIyWlLk6GJQsqaUBKTNV-1">
          <mxGeometry x="359" y="1005" width="110" height="40" as="geometry" />
        </mxCell>
        <mxCell id="EBlUURWpQlwmX8y5HMvf-53" value="Yes" style="text;html=1;align=center;verticalAlign=middle;resizable=0;points=[];autosize=1;strokeColor=none;fillColor=none;" vertex="1" parent="WIyWlLk6GJQsqaUBKTNV-1">
          <mxGeometry x="313" y="1002" width="40" height="30" as="geometry" />
        </mxCell>
        <mxCell id="EBlUURWpQlwmX8y5HMvf-57" style="edgeStyle=orthogonalEdgeStyle;rounded=0;orthogonalLoop=1;jettySize=auto;html=1;" edge="1" parent="WIyWlLk6GJQsqaUBKTNV-1" source="EBlUURWpQlwmX8y5HMvf-54">
          <mxGeometry relative="1" as="geometry">
            <mxPoint x="360" y="1173" as="targetPoint" />
          </mxGeometry>
        </mxCell>
        <mxCell id="EBlUURWpQlwmX8y5HMvf-62" value="" style="edgeStyle=orthogonalEdgeStyle;rounded=0;orthogonalLoop=1;jettySize=auto;html=1;" edge="1" parent="WIyWlLk6GJQsqaUBKTNV-1" source="EBlUURWpQlwmX8y5HMvf-54" target="EBlUURWpQlwmX8y5HMvf-61">
          <mxGeometry relative="1" as="geometry" />
        </mxCell>
        <mxCell id="EBlUURWpQlwmX8y5HMvf-54" value="if&lt;div&gt;segmentValue &amp;lt; 0 or segmentValue &amp;gt; 255&lt;/div&gt;" style="rhombus;whiteSpace=wrap;html=1;" vertex="1" parent="WIyWlLk6GJQsqaUBKTNV-1">
          <mxGeometry x="165" y="1116" width="170" height="114" as="geometry" />
        </mxCell>
        <mxCell id="EBlUURWpQlwmX8y5HMvf-56" value="No" style="text;html=1;align=center;verticalAlign=middle;resizable=0;points=[];autosize=1;strokeColor=none;fillColor=none;" vertex="1" parent="WIyWlLk6GJQsqaUBKTNV-1">
          <mxGeometry x="240" y="1078" width="40" height="30" as="geometry" />
        </mxCell>
        <mxCell id="EBlUURWpQlwmX8y5HMvf-59" style="edgeStyle=orthogonalEdgeStyle;rounded=0;orthogonalLoop=1;jettySize=auto;html=1;" edge="1" parent="WIyWlLk6GJQsqaUBKTNV-1" source="EBlUURWpQlwmX8y5HMvf-58">
          <mxGeometry relative="1" as="geometry">
            <mxPoint x="500" y="1173" as="targetPoint" />
          </mxGeometry>
        </mxCell>
        <mxCell id="EBlUURWpQlwmX8y5HMvf-58" value="return false" style="rounded=1;whiteSpace=wrap;html=1;fontSize=12;glass=0;strokeWidth=1;shadow=0;" vertex="1" parent="WIyWlLk6GJQsqaUBKTNV-1">
          <mxGeometry x="360" y="1153" width="110" height="40" as="geometry" />
        </mxCell>
        <mxCell id="EBlUURWpQlwmX8y5HMvf-60" value="Yes" style="text;html=1;align=center;verticalAlign=middle;resizable=0;points=[];autosize=1;strokeColor=none;fillColor=none;" vertex="1" parent="WIyWlLk6GJQsqaUBKTNV-1">
          <mxGeometry x="320" y="1148" width="40" height="30" as="geometry" />
        </mxCell>
        <mxCell id="EBlUURWpQlwmX8y5HMvf-65" style="edgeStyle=orthogonalEdgeStyle;rounded=0;orthogonalLoop=1;jettySize=auto;html=1;exitX=1;exitY=0.5;exitDx=0;exitDy=0;entryX=0;entryY=0.5;entryDx=0;entryDy=0;" edge="1" parent="WIyWlLk6GJQsqaUBKTNV-1" source="EBlUURWpQlwmX8y5HMvf-61" target="EBlUURWpQlwmX8y5HMvf-64">
          <mxGeometry relative="1" as="geometry" />
        </mxCell>
        <mxCell id="EBlUURWpQlwmX8y5HMvf-70" value="" style="edgeStyle=orthogonalEdgeStyle;rounded=0;orthogonalLoop=1;jettySize=auto;html=1;" edge="1" parent="WIyWlLk6GJQsqaUBKTNV-1" source="EBlUURWpQlwmX8y5HMvf-61">
          <mxGeometry relative="1" as="geometry">
            <mxPoint x="50" y="1315" as="targetPoint" />
          </mxGeometry>
        </mxCell>
        <mxCell id="EBlUURWpQlwmX8y5HMvf-61" value="if&amp;nbsp;&lt;div&gt;segment != &quot;0&quot; and&lt;div&gt;&amp;nbsp; segment.srtartsWith(&#39;0&#39;)&lt;/div&gt;&lt;/div&gt;" style="rhombus;whiteSpace=wrap;html=1;" vertex="1" parent="WIyWlLk6GJQsqaUBKTNV-1">
          <mxGeometry x="160" y="1260" width="180" height="110" as="geometry" />
        </mxCell>
        <mxCell id="EBlUURWpQlwmX8y5HMvf-66" style="edgeStyle=orthogonalEdgeStyle;rounded=0;orthogonalLoop=1;jettySize=auto;html=1;exitX=1;exitY=0.5;exitDx=0;exitDy=0;" edge="1" parent="WIyWlLk6GJQsqaUBKTNV-1" source="EBlUURWpQlwmX8y5HMvf-64">
          <mxGeometry relative="1" as="geometry">
            <mxPoint x="500" y="1315" as="targetPoint" />
          </mxGeometry>
        </mxCell>
        <mxCell id="EBlUURWpQlwmX8y5HMvf-64" value="return false" style="rounded=1;whiteSpace=wrap;html=1;fontSize=12;glass=0;strokeWidth=1;shadow=0;" vertex="1" parent="WIyWlLk6GJQsqaUBKTNV-1">
          <mxGeometry x="365" y="1295" width="110" height="40" as="geometry" />
        </mxCell>
        <mxCell id="EBlUURWpQlwmX8y5HMvf-67" value="Yes" style="text;html=1;align=center;verticalAlign=middle;resizable=0;points=[];autosize=1;strokeColor=none;fillColor=none;" vertex="1" parent="WIyWlLk6GJQsqaUBKTNV-1">
          <mxGeometry x="330" y="1288" width="40" height="30" as="geometry" />
        </mxCell>
        <mxCell id="EBlUURWpQlwmX8y5HMvf-72" style="edgeStyle=orthogonalEdgeStyle;rounded=0;orthogonalLoop=1;jettySize=auto;html=1;entryX=0;entryY=0.5;entryDx=0;entryDy=0;" edge="1" parent="WIyWlLk6GJQsqaUBKTNV-1" source="EBlUURWpQlwmX8y5HMvf-71" target="EBlUURWpQlwmX8y5HMvf-4">
          <mxGeometry relative="1" as="geometry">
            <Array as="points">
              <mxPoint x="-5" y="1423" />
            </Array>
          </mxGeometry>
        </mxCell>
        <mxCell id="EBlUURWpQlwmX8y5HMvf-71" value="return true" style="rounded=1;whiteSpace=wrap;html=1;fontSize=12;glass=0;strokeWidth=1;shadow=0;" vertex="1" parent="WIyWlLk6GJQsqaUBKTNV-1">
          <mxGeometry x="-60" y="1295" width="110" height="55" as="geometry" />
        </mxCell>
      </root>
    </mxGraphModel>
  </diagram>
</mxfile>
